<svg width="27" height="26" viewBox="0 0 27 26" fill="none" xmlns="http://www.w3.org/2000/svg">
<path d="M20.2031 0.519382L15.5232 2.85933C14.2188 3.50484 12.6991 3.50484 11.3947 2.85933L6.70133 0.505934C2.69383 -1.49782 -1.54229 2.83244 0.5556 6.79959L1.65834 8.87059C1.80626 9.15299 2.04833 9.38161 2.34418 9.51609L19.3559 17.168C20.0552 17.4773 20.8755 17.1949 21.2252 16.5225L26.3489 6.78615C28.4333 2.83244 24.2106 -1.49782 20.2031 0.519382Z" fill="#1775E4"/>
<path opacity="0.4" d="M18.2935 18.7952L7.15854 13.7791C5.90788 13.2143 4.64377 14.5591 5.28927 15.7694L9.37746 23.5289C11.1123 26.8237 15.8191 26.8237 17.5538 23.5289L18.9928 20.7855C19.3693 20.0459 19.0466 19.1448 18.2935 18.7952Z" fill="#1775E4"/>
</svg>
