<svg width="20" height="22" viewBox="0 0 20 22" fill="none" xmlns="http://www.w3.org/2000/svg">
<path d="M9.80341 5.2739V8.65773" stroke="#0D163A" stroke-width="1.5" stroke-miterlimit="10" stroke-linecap="round"/>
<path d="M9.82363 0.762124C6.08415 0.762124 3.05597 3.7903 3.05597 7.52978V9.66373C3.05597 10.3547 2.77145 11.3912 2.41579 11.9806L1.12526 14.1349C0.332651 15.466 0.881379 16.9496 2.34466 17.4374C7.20193 19.0531 12.4555 19.0531 17.3128 17.4374C18.6846 16.9801 19.274 15.3746 18.5322 14.1349L17.2416 11.9806C16.886 11.3912 16.6015 10.3446 16.6015 9.66373V7.52978C16.5913 3.81062 13.5428 0.762124 9.82363 0.762124Z" stroke="#0D163A" stroke-width="1.5" stroke-miterlimit="10" stroke-linecap="round"/>
<path d="M13.1872 17.854C13.1872 19.7136 11.6629 21.2379 9.80333 21.2379C8.87862 21.2379 8.02504 20.8517 7.41535 20.242C6.80565 19.6323 6.4195 18.7787 6.4195 17.854" stroke="#0D163A" stroke-width="1.5" stroke-miterlimit="10"/>
</svg>
