<svg width="12" height="12" viewBox="0 0 12 12" fill="none" xmlns="http://www.w3.org/2000/svg">
<path opacity="0.4" d="M8.51403 0H3.48601C1.302 0 0 1.302 0 3.48601V8.50803C0 10.698 1.302 12 3.48601 12H8.50803C10.692 12 11.994 10.698 11.994 8.51403V3.48601C12 1.302 10.698 0 8.51403 0Z" fill="#31D3A3"/>
<path d="M8.84887 3.00009H5.95086C5.70486 3.00009 5.50085 3.20409 5.50085 3.4501C5.50085 3.6961 5.70486 3.9001 5.95086 3.9001H7.76286L3.13085 8.53211C2.95685 8.70611 2.95685 8.99412 3.13085 9.16812C3.22085 9.25812 3.33485 9.30012 3.44885 9.30012C3.56285 9.30012 3.67685 9.25812 3.76685 9.16812L8.39886 4.5361V6.34811C8.39886 6.59411 8.60287 6.79811 8.84887 6.79811C9.09487 6.79811 9.29887 6.59411 9.29887 6.34811V3.4501C9.29887 3.20409 9.09487 3.00009 8.84887 3.00009Z" fill="#31D3A3"/>
</svg>
