<svg width="27" height="27" viewBox="0 0 27 27" fill="none" xmlns="http://www.w3.org/2000/svg">
<path opacity="0.4" d="M14.6982 5.23682H4.19753C1.88955 5.23682 0 7.12637 0 9.43434V24.7669C0 26.7239 1.40368 27.5607 3.11779 26.6024L8.42207 23.6466C8.98894 23.3362 9.90675 23.3362 10.4601 23.6466L15.7644 26.6024C17.4785 27.5607 18.8822 26.7239 18.8822 24.7669V9.43434C18.8957 7.12637 17.0062 5.23682 14.6982 5.23682Z" fill="#3BBB6E"/>
<path d="M26.9939 4.19753V19.5301C26.9939 21.4871 25.5902 22.3104 23.8761 21.3656L18.8957 18.5853V9.43434C18.8957 7.12637 17.0062 5.23682 14.6982 5.23682H8.09816V4.19753C8.09816 1.88955 9.98771 0 12.2957 0H22.7963C25.1043 0 26.9939 1.88955 26.9939 4.19753Z" fill="#3BBB6E"/>
</svg>
