<svg width="27" height="27" viewBox="0 0 27 27" fill="none" xmlns="http://www.w3.org/2000/svg">
<path opacity="0.2" d="M20.9163 15.4797C20.351 16.0315 20.028 16.8257 20.1087 17.6736C20.2299 19.1273 21.5624 20.1906 23.016 20.1906H25.5734V21.7923C25.5734 24.5784 23.2987 26.8531 20.5125 26.8531H5.06083C2.27468 26.8531 0 24.5784 0 21.7923V12.7339C0 9.94779 2.27468 7.67309 5.06083 7.67309H20.5125C23.2987 7.67309 25.5734 9.94779 25.5734 12.7339V14.6721H22.8545C22.1008 14.6721 21.4143 14.9682 20.9163 15.4797Z" fill="white"/>
<path opacity="0.8" d="M16.6227 2.55842V7.67308H5.06083C2.27468 7.67308 0 9.94777 0 12.7339V7.79425C0 6.19255 0.982556 4.76577 2.47658 4.20046L13.1636 0.162563C14.8325 -0.456582 16.6227 0.768287 16.6227 2.55842Z" fill="white"/>
<path opacity="0.8" d="M27 16.045V18.8177C27 19.558 26.4077 20.1636 25.654 20.1906H23.0159C21.5623 20.1906 20.2298 19.1273 20.1086 17.6736C20.0279 16.8257 20.3509 16.0315 20.9162 15.4797C21.4142 14.9682 22.1006 14.6721 22.8544 14.6721H25.654C26.4077 14.6991 27 15.3047 27 16.045Z" fill="white"/>
<path d="M15.4786 14.4029H6.05685C5.505 14.4029 5.04737 13.9453 5.04737 13.3934C5.04737 12.8416 5.505 12.3839 6.05685 12.3839H15.4786C16.0305 12.3839 16.4881 12.8416 16.4881 13.3934C16.4881 13.9453 16.0305 14.4029 15.4786 14.4029Z" fill="white"/>
</svg>
