<svg width="27" height="26" viewBox="0 0 27 26" fill="none" xmlns="http://www.w3.org/2000/svg">
<path d="M20.2023 25.493L15.5225 23.1532C14.2181 22.5077 12.6986 22.5077 11.3942 23.1532L6.71444 25.493C2.69365 27.4967 -1.54231 23.1801 0.555497 19.2131L1.65819 17.1421C1.80611 16.8597 2.04817 16.6311 2.34401 16.4967L19.3416 8.8316C20.0409 8.5223 20.8612 8.8047 21.2108 9.47708L26.3343 19.2131C28.4321 23.1801 24.2096 27.4967 20.2023 25.493Z" fill="#F9BA33"/>
<path opacity="0.4" d="M18.2928 7.20449L7.15827 12.2204C5.90766 12.7852 4.64359 11.4404 5.28907 10.2302L9.37711 2.47098C11.1118 -0.823658 15.8185 -0.823658 17.5532 2.47098L18.9921 5.21426C19.3686 5.95387 19.0458 6.8683 18.2928 7.20449Z" fill="#F9BA33"/>
</svg>
