<svg width="21" height="22" viewBox="0 0 21 22" fill="none" xmlns="http://www.w3.org/2000/svg">
<path d="M7.70257 9.79514C7.60075 9.78496 7.47856 9.78496 7.36656 9.79514C4.94323 9.71368 3.01882 7.72818 3.01882 5.28449C3.01882 2.78988 5.03487 0.763654 7.53966 0.763654C10.0343 0.763654 12.0605 2.78988 12.0605 5.28449C12.0503 7.72818 10.1259 9.71368 7.70257 9.79514Z" stroke="#0D163A" stroke-width="1.5" stroke-linecap="round" stroke-linejoin="round"/>
<path opacity="0.4" d="M15.0843 2.80007C17.0596 2.80007 18.648 4.39865 18.648 6.36379C18.648 8.2882 17.1207 9.85623 15.2167 9.92751C15.1352 9.91733 15.0436 9.91733 14.9519 9.92751" stroke="#0D163A" stroke-width="1.5" stroke-linecap="round" stroke-linejoin="round"/>
<path d="M2.6117 13.5523C0.14764 15.2018 0.14764 17.8899 2.6117 19.5292C5.41176 21.4027 10.0039 21.4027 12.8039 19.5292C15.268 17.8797 15.268 15.1916 12.8039 13.5523C10.0141 11.689 5.42195 11.689 2.6117 13.5523Z" stroke="#0D163A" stroke-width="1.5" stroke-linecap="round" stroke-linejoin="round"/>
<path opacity="0.4" d="M17.0495 19.0914C17.7826 18.9386 18.475 18.6433 19.0452 18.2055C20.6336 17.0142 20.6336 15.0491 19.0452 13.8578C18.4851 13.4301 17.803 13.145 17.08 12.9821" stroke="#0D163A" stroke-width="1.5" stroke-linecap="round" stroke-linejoin="round"/>
</svg>
