<svg width="22" height="22" viewBox="0 0 22 22" fill="none" xmlns="http://www.w3.org/2000/svg">
<path d="M7.39796 18.1122H6.88776C2.80612 18.1122 0.765306 17.0918 0.765306 11.9898V6.88776C0.765306 2.80612 2.80612 0.765306 6.88776 0.765306H15.051C19.1327 0.765306 21.1735 2.80612 21.1735 6.88776V11.9898C21.1735 16.0714 19.1327 18.1122 15.051 18.1122H14.5408C14.2245 18.1122 13.9184 18.2653 13.7245 18.5204L12.1939 20.5612C11.5204 21.4592 10.4184 21.4592 9.7449 20.5612L8.21429 18.5204C8.05102 18.2959 7.67347 18.1122 7.39796 18.1122Z" stroke="#0D163A" stroke-width="1.5" stroke-miterlimit="10" stroke-linecap="round" stroke-linejoin="round"/>
<path d="M5.86735 6.88776H16.0714" stroke="#0D163A" stroke-width="1.5" stroke-linecap="round" stroke-linejoin="round"/>
<path d="M5.86735 11.9898H11.9898" stroke="#0D163A" stroke-width="1.5" stroke-linecap="round" stroke-linejoin="round"/>
</svg>
